<svg xmlns="http://www.w3.org/2000/svg" viewBox="0 0 268 252">
  <!-- Hand-drawn kit style: thick irregular ink strokes, ivory fills. -->
  <path d="M134 32 C161 61 177 98 177 137 C177 157 169 175 158 187 L110 189 C99 177 91 159 91 139 C91 100 107 62 134 32 Z" fill="#FAF9F5" stroke="#141413" stroke-width="10" stroke-linejoin="round"/>
  <path d="M91 131 C73 145 61 166 57 190 C74 188 90 183 105 175" fill="#FAF9F5" stroke="#141413" stroke-width="9" stroke-linejoin="round"/>
  <path d="M177 129 C195 143 207 164 211 188 C194 187 178 182 163 174" fill="#FAF9F5" stroke="#141413" stroke-width="9" stroke-linejoin="round"/>
  <path d="M134 96 C146 96 155 105 155 116 C155 128 146 136 134 136 C122 136 113 127 113 115 C113 104 122 96 134 96 Z" fill="none" stroke="#141413" stroke-width="9" stroke-linecap="round" stroke-linejoin="round"/>
  <path d="M116 197 C122 212 128 222 134 231 C140 222 146 212 152 197" fill="none" stroke="#141413" stroke-width="8" stroke-linecap="round" stroke-linejoin="round"/>
</svg>
